<svg enable-background="new 0 0 128 128" viewBox="0 0 128 128" xmlns="http://www.w3.org/2000/svg" xmlns:xlink="http://www.w3.org/1999/xlink"><linearGradient id="a" gradientTransform="matrix(-.687 .7266 -.7266 -.687 184.87 103.18)" gradientUnits="userSpaceOnUse" x1="44.651" x2="114.64" y1="99.074" y2="99.074"><stop offset=".0098938" stop-color="#8a0032"/><stop offset=".1821" stop-color="#8e0034"/><stop offset=".4055" stop-color="#ff005d"/><stop offset=".4397" stop-color="#ff1368"/><stop offset=".5501" stop-color="#ff4c87"/><stop offset=".6572" stop-color="#ff7ca2"/><stop offset=".7583" stop-color="#ffa1b6"/><stop offset=".8518" stop-color="#ffbbc5"/><stop offset=".9352" stop-color="#ffcbce"/><stop offset="1" stop-color="#ffd1d1"/></linearGradient><linearGradient id="b" gradientTransform="matrix(-.9385 -.3452 .3452 -.9385 67.824 217.76)" gradientUnits="userSpaceOnUse" x1="50.97" x2="116.3" y1="126.93" y2="126.93"><stop offset=".0098938" stop-color="#8a0032"/><stop offset=".4055" stop-color="#ff005d"/><stop offset=".4397" stop-color="#ff1368"/><stop offset=".5501" stop-color="#ff4c87"/><stop offset=".6572" stop-color="#ff7ca2"/><stop offset=".7583" stop-color="#ffa1b6"/><stop offset=".8518" stop-color="#ffbbc5"/><stop offset=".9352" stop-color="#ffcbce"/><stop offset="1" stop-color="#ffd1d1"/></linearGradient><linearGradient id="c" gradientTransform="matrix(-.0948 -.9955 1.045 -.0996 -114.75 136.44)" gradientUnits="userSpaceOnUse" x1="50.762" x2="114.92" y1="169.47" y2="169.47"><stop offset=".0098938" stop-color="#8a0032"/><stop offset=".3091" stop-color="#ff005d"/><stop offset=".3489" stop-color="#ff1368"/><stop offset=".4773" stop-color="#ff4c87"/><stop offset=".6017" stop-color="#ff7ca2"/><stop offset=".7191" stop-color="#ffa1b6"/><stop offset=".8278" stop-color="#ffbbc5"/><stop offset=".9247" stop-color="#ffcbce"/><stop offset="1" stop-color="#ffd1d1"/></linearGradient><linearGradient id="d" gradientTransform="matrix(.6472 .8476 -.7948 .6069 91.629 -42.772)" gradientUnits="userSpaceOnUse" x1="71.027" x2="124.44" y1="75.773" y2="75.773"><stop offset="0" stop-color="#ff005d"/><stop offset=".0218" stop-color="#ff0962"/><stop offset=".1619" stop-color="#ff3d7f"/><stop offset=".304" stop-color="#ff6b98"/><stop offset=".4454" stop-color="#ff90ad"/><stop offset=".5861" stop-color="#ffacbd"/><stop offset=".7259" stop-color="#ffc1c8"/><stop offset=".8643" stop-color="#ffcdcf"/><stop offset="1" stop-color="#ffd1d1"/></linearGradient><linearGradient id="e" gradientUnits="userSpaceOnUse" x1="78.053" x2="116.89" y1="65.141" y2="30.308"><stop offset="0" stop-color="#ff005d"/><stop offset=".0481" stop-color="#ff1468"/><stop offset=".1776" stop-color="#ff4684"/><stop offset=".3102" stop-color="#ff719c"/><stop offset=".4437" stop-color="#ff93af"/><stop offset=".5784" stop-color="#ffafbe"/><stop offset=".7148" stop-color="#ffc2c9"/><stop offset=".8539" stop-color="#ffcdcf"/><stop offset="1" stop-color="#ffd1d1"/></linearGradient><path d="m35.15 81.24c-10.91 8.31-20.79 31.32.42 33.17 3.72.32 2.41 1.97 6 3.84 3.91 2.03 3.75-.84 7.03 1.49 27.66 19.69 40.36-47.39 27.83-57.62-9.49-7.75-42 19.61-41.28 19.12z" fill="url(#a)"/><path d="m37.1 44.68c-11.93-6.76-36.98-6.77-30.32 13.45 1.17 3.54-.86 3-1.16 7.03-.33 4.39.94 3.05 1.4 7.05 4.66 40.76 52.33 9.99 61.51-4.34 6.3-9.84-32.17-23.66-31.43-23.19z" fill="url(#b)"/><path d="m52.18 8.52c-2.62 2.56-3.08.51-6.84 1.93-4.11 1.55-1.85 3.23-5.77 4.13-33.05 7.64 5.32 60.91 32.71 52.66 22.24-6.71 2.94-81.23-20.1-58.72z" fill="url(#c)"/><path d="m48.81 48.39c17.57 8.5 26.7 21.16 23.47 23.42-3.76 2.63-3.47-8.85-23.47-23.42z" fill="#f8bbd0"/><path d="m56.7 60.07c1.14-.54 1.62-1.92 1.07-3.09s-1.92-1.68-3.06-1.15c-1.14.54-1.62 1.92-1.07 3.09.55 1.18 1.92 1.69 3.06 1.15z" fill="#ffd54f"/><path d="m52.06 56.67c1.14-.54 1.62-1.92 1.07-3.09s-1.92-1.68-3.06-1.15c-1.14.54-1.62 1.92-1.07 3.09s1.92 1.69 3.06 1.15z" fill="#ffecb3"/><path d="m63.75 54.81c1.14-.54 1.62-1.92 1.07-3.09s-1.92-1.68-3.06-1.15c-1.14.54-1.62 1.92-1.07 3.09.55 1.18 1.92 1.69 3.06 1.15z" fill="#ffd54f"/><path d="m58.99 52.02c1.14-.54 1.62-1.92 1.07-3.09s-1.92-1.68-3.06-1.15c-1.14.54-1.62 1.92-1.07 3.09s1.92 1.69 3.06 1.15z" fill="#ffecb3"/><path d="m54.19 48.34c1.14-.54 1.62-1.92 1.07-3.09s-1.92-1.68-3.06-1.15c-1.14.54-1.62 1.92-1.07 3.09.54 1.17 1.91 1.69 3.06 1.15z" fill="#ffd54f"/><g fill="#ad1457"><path d="m49.81 45.08c1.14-.54 1.62-1.92 1.07-3.09s-1.92-1.68-3.06-1.15c-1.14.54-1.62 1.92-1.07 3.09s1.92 1.69 3.06 1.15z"/><path d="m45.18 47.41c1.14-.54 1.62-1.92 1.07-3.09s-1.92-1.68-3.06-1.15c-1.14.54-1.62 1.92-1.07 3.09s1.92 1.69 3.06 1.15z"/><ellipse cx="46.48" cy="50.89" rx="2.28" ry="2.34" transform="matrix(.9051 -.4251 .4251 .9051 -17.224 24.588)"/></g><path d="m107.4 111.88c3.63-1.68 5.66-5.58 7.7-9.44 2.32-4.38-.38-4.28 2.62-7.37 25.33-26.07-33.42-39.96-45.52-27.58-4.29 4.39-3.81 20.19-.19 29.46 6.86 17.59 11.29 26.07 35.39 14.93z" fill="url(#d)"/><path d="m123.65 41.93c-.79-4.36-4.16-4.55-4.95-9.31-.8-4.77-4.37-1.4-7.05-4.92-21.86-28.74-49.44 23.52-38.11 38.17 9.06 11.72 56.15 9.26 50.11-23.94z" fill="url(#e)"/><path d="m61.1 7.47c6.23 0 12.94 9.83 16.32 23.9.27 1.14 1.18 2.01 2.33 2.24.2.04.39.06.59.06.95 0 1.85-.45 2.43-1.24 4.71-6.48 10.03-10.05 14.98-10.05 4.08 0 8.01 2.46 11.7 7.31 1.96 2.58 4.38 2.9 5.83 3.09.17.02.39.05.55.08.03.1.06.24.09.42.55 3.28 2.12 5.07 3.26 6.38.91 1.04 1.46 1.67 1.7 2.97 2.36 12.99-4.47 19.58-10.62 22.81-1.01.53-1.63 1.58-1.6 2.72s.69 2.16 1.72 2.65c6.17 2.89 9.95 6.64 10.67 10.54.65 3.54-1.13 7.51-5.29 11.79-2.27 2.34-2.44 3.94-2.41 5.51.01.66.02 1.17-.71 2.55l-.09.17c-1.83 3.45-3.56 6.72-6.22 7.95-6.9 3.19-12.17 4.74-16.12 4.74-4.99 0-8.06-2.4-11.3-8.86-.51-1.02-1.55-1.65-2.68-1.65h-.12c-1.18.05-2.22.78-2.66 1.87-2.29 5.63-7.27 15.09-14.89 15.09-2.5 0-5.2-1.02-8.04-3.04-1.47-1.04-2.78-1.53-4.13-1.53-.62 0-1.14.1-1.51.18-.25.05-.39.08-.5.08-.25 0-.7-.16-1.24-.44-1.02-.53-1.36-.94-1.79-1.47-1.04-1.27-2.24-2.43-5.33-2.7-4.51-.39-7.48-1.83-8.84-4.28-1.66-3-1.03-7.95 1.68-13.25.48-.94.43-2.06-.12-2.95-.55-.88-1.51-1.41-2.55-1.41h-.05-.36c-9.14 0-14.24-5.78-15.6-17.66-.24-2.09-.68-3.12-1.15-4.08-.24-.49-.36-.74-.24-2.41.09-1.14.33-1.62.64-2.22.75-1.46 1.35-3.01.38-5.96-1.38-4.19-1.27-7.44.32-9.64 1.8-2.49 5.79-3.92 10.94-3.92 2.81 0 5.81.42 8.68 1.22.27.07.54.11.8.11.89 0 1.74-.39 2.32-1.1.75-.92.89-2.2.35-3.26-3.36-6.6-4.15-12.51-2.23-16.64 1.49-3.19 4.66-5.36 9.43-6.46 2.97-.69 3.96-1.97 4.72-3.23.27-.44.38-.62 1.43-1.02.86-.33 1.39-.37 1.83-.37.17 0 .33.01.49.01.21.01.41.01.61.01 1.87 0 3.35-.67 4.96-2.24 2.29-2.24 4.52-3.37 6.64-3.37m0-3c-2.79 0-5.73 1.28-8.74 4.22-1.25 1.22-2 1.39-2.86 1.39-.34 0-.69-.03-1.09-.03-.73 0-1.62.09-2.89.56-4.11 1.55-1.85 3.23-5.77 4.13-14.51 3.36-15.25 15.51-9.2 27.39-3.05-.85-6.33-1.33-9.48-1.33-9.83 0-18.33 4.69-14.12 17.5 1.17 3.54-.86 3-1.16 7.03-.33 4.39.94 3.05 1.4 7.05 1.72 15.01 9.27 20.32 18.58 20.32h.41c-4.89 9.56-4.87 20.62 9.57 21.88 3.72.32 2.41 1.97 6 3.84 1.17.61 1.98.78 2.62.78.79 0 1.34-.26 2.01-.26.6 0 1.31.2 2.39.97 3.51 2.5 6.77 3.6 9.77 3.6 7.75 0 13.76-7.32 17.67-16.96 3.32 6.6 7.11 10.52 13.98 10.52 4.35 0 9.92-1.57 17.38-5.01 3.63-1.68 5.66-5.58 7.7-9.44 2.32-4.38-.38-4.28 2.62-7.37 11.84-12.19 5.3-21.71-6.25-27.14 8.61-4.53 14.56-12.86 12.17-26-.79-4.36-4.16-4.55-4.95-9.31-.8-4.77-4.37-1.4-7.05-4.92-4.58-6.02-9.42-8.49-14.09-8.49-6.47 0-12.63 4.73-17.4 11.28-3.3-13.83-10.54-26.2-19.22-26.2z" fill="#424242" opacity=".2"/></svg>